<svg width="28" height="28" viewBox="0 0 28 28" fill="none" xmlns="http://www.w3.org/2000/svg">
<path d="M5.15665 24.5088C4.99479 24.5085 4.83476 24.4745 4.68673 24.409C4.5387 24.3436 4.40592 24.248 4.29682 24.1284C4.18575 24.0099 4.101 23.8692 4.04812 23.7156C3.99524 23.562 3.97543 23.3989 3.98999 23.2371L4.27582 20.0941L17.4802 6.89443L21.6067 11.0198L8.40582 24.2183L5.26282 24.5041C5.22753 24.5074 5.1921 24.5089 5.15665 24.5088V24.5088ZM22.4303 10.1949L18.305 6.0696L20.7795 3.5951C20.8878 3.48663 21.0165 3.40057 21.1581 3.34186C21.2998 3.28315 21.4516 3.25293 21.6049 3.25293C21.7582 3.25293 21.91 3.28315 22.0517 3.34186C22.1933 3.40057 22.322 3.48663 22.4303 3.5951L24.9048 6.0696C25.0133 6.17795 25.0993 6.30662 25.1581 6.44825C25.2168 6.58988 25.247 6.7417 25.247 6.89501C25.247 7.04833 25.2168 7.20015 25.1581 7.34178C25.0993 7.48341 25.0133 7.61208 24.9048 7.72043L22.4315 10.1938L22.4303 10.1949V10.1949Z" fill="#202529"/>
</svg>
