<svg width="50" height="50" viewBox="0 0 50 50" fill="none" xmlns="http://www.w3.org/2000/svg">
<path d="M38.8625 36.6563L44.9656 42.7563C45.2503 43.051 45.4077 43.4456 45.4042 43.8553C45.4006 44.265 45.2363 44.6569 44.9466 44.9466C44.6569 45.2363 44.265 45.4006 43.8553 45.4042C43.4456 45.4077 43.051 45.2503 42.7563 44.9656L36.6531 38.8625C32.6649 42.2795 27.5082 44.019 22.2651 43.7159C17.0219 43.4128 12.1 41.0908 8.53204 37.237C4.96408 33.3832 3.02745 28.2972 3.12852 23.0463C3.2296 17.7954 5.36052 12.7878 9.07415 9.07415C12.7878 5.36052 17.7954 3.2296 23.0463 3.12852C28.2972 3.02745 33.3832 4.96408 37.237 8.53204C41.0908 12.1 43.4128 17.0219 43.7159 22.2651C44.019 27.5082 42.2795 32.6649 38.8625 36.6531V36.6563ZM23.4375 40.625C27.9959 40.625 32.3676 38.8142 35.5909 35.5909C38.8142 32.3676 40.625 27.9959 40.625 23.4375C40.625 18.8791 38.8142 14.5074 35.5909 11.2841C32.3676 8.06083 27.9959 6.25001 23.4375 6.25001C18.8791 6.25001 14.5074 8.06083 11.2841 11.2841C8.06083 14.5074 6.25001 18.8791 6.25001 23.4375C6.25001 27.9959 8.06083 32.3676 11.2841 35.5909C14.5074 38.8142 18.8791 40.625 23.4375 40.625V40.625Z" fill="black"/>
</svg>
